<svg width="122" height="113" viewBox="0 0 122 113" fill="none" xmlns="http://www.w3.org/2000/svg">
<rect width="122" height="113" fill="#3F3535"/>
<path d="M18.075 89.275C18.075 87.575 18.4583 86.05 19.225 84.7C19.9917 83.3333 21.0333 82.2667 22.35 81.5C23.6833 80.7333 25.1583 80.35 26.775 80.35C28.675 80.35 30.3333 80.8083 31.75 81.725C33.1667 82.6417 34.2 83.9417 34.85 85.625H32.125C31.6417 84.575 30.9417 83.7667 30.025 83.2C29.125 82.6333 28.0417 82.35 26.775 82.35C25.5583 82.35 24.4667 82.6333 23.5 83.2C22.5333 83.7667 21.775 84.575 21.225 85.625C20.675 86.6583 20.4 87.875 20.4 89.275C20.4 90.6583 20.675 91.875 21.225 92.925C21.775 93.9583 22.5333 94.7583 23.5 95.325C24.4667 95.8917 25.5583 96.175 26.775 96.175C28.0417 96.175 29.125 95.9 30.025 95.35C30.9417 94.7833 31.6417 93.975 32.125 92.925H34.85C34.2 94.5917 33.1667 95.8833 31.75 96.8C30.3333 97.7 28.675 98.15 26.775 98.15C25.1583 98.15 23.6833 97.775 22.35 97.025C21.0333 96.2583 19.9917 95.2 19.225 93.85C18.4583 92.5 18.075 90.975 18.075 89.275ZM45.0365 84.05C46.0699 84.05 47.0032 84.275 47.8365 84.725C48.6699 85.1583 49.3199 85.8167 49.7865 86.7C50.2699 87.5833 50.5115 88.6583 50.5115 89.925V98H48.2615V90.25C48.2615 88.8833 47.9199 87.8417 47.2365 87.125C46.5532 86.3917 45.6199 86.025 44.4365 86.025C43.2365 86.025 42.2782 86.4 41.5615 87.15C40.8615 87.9 40.5115 88.9917 40.5115 90.425V98H38.2365V79.5H40.5115V86.25C40.9615 85.55 41.5782 85.0083 42.3615 84.625C43.1615 84.2417 44.0532 84.05 45.0365 84.05ZM53.3777 91.1C53.3777 89.7 53.6611 88.475 54.2277 87.425C54.7944 86.3583 55.5694 85.5333 56.5527 84.95C57.5527 84.3667 58.6611 84.075 59.8777 84.075C61.0777 84.075 62.1194 84.3333 63.0027 84.85C63.8861 85.3667 64.5444 86.0167 64.9777 86.8V84.3H67.2777V98H64.9777V95.45C64.5277 96.25 63.8527 96.9167 62.9527 97.45C62.0694 97.9667 61.0361 98.225 59.8527 98.225C58.6361 98.225 57.5361 97.925 56.5527 97.325C55.5694 96.725 54.7944 95.8833 54.2277 94.8C53.6611 93.7167 53.3777 92.4833 53.3777 91.1ZM64.9777 91.125C64.9777 90.0917 64.7694 89.1917 64.3527 88.425C63.9361 87.6583 63.3694 87.075 62.6527 86.675C61.9527 86.2583 61.1777 86.05 60.3277 86.05C59.4777 86.05 58.7027 86.25 58.0027 86.65C57.3027 87.05 56.7444 87.6333 56.3277 88.4C55.9111 89.1667 55.7027 90.0667 55.7027 91.1C55.7027 92.15 55.9111 93.0667 56.3277 93.85C56.7444 94.6167 57.3027 95.2083 58.0027 95.625C58.7027 96.025 59.4777 96.225 60.3277 96.225C61.1777 96.225 61.9527 96.025 62.6527 95.625C63.3694 95.2083 63.9361 94.6167 64.3527 93.85C64.7694 93.0667 64.9777 92.1583 64.9777 91.125ZM73.3973 86.525C73.7973 85.7417 74.3639 85.1333 75.0973 84.7C75.8473 84.2667 76.7556 84.05 77.8223 84.05V86.4H77.2223C74.6723 86.4 73.3973 87.7833 73.3973 90.55V98H71.1223V84.3H73.3973V86.525ZM83.2234 86.175V94.25C83.2234 94.9167 83.3651 95.3917 83.6484 95.675C83.9318 95.9417 84.4234 96.075 85.1234 96.075H86.7984V98H84.7484C83.4818 98 82.5318 97.7083 81.8984 97.125C81.2651 96.5417 80.9484 95.5833 80.9484 94.25V86.175H79.1734V84.3H80.9484V80.85H83.2234V84.3H86.7984V86.175H83.2234ZM94.4049 98.225C93.3549 98.225 92.4132 98.05 91.5799 97.7C90.7465 97.3333 90.0882 96.8333 89.6049 96.2C89.1215 95.55 88.8549 94.8083 88.8049 93.975H91.1549C91.2215 94.6583 91.5382 95.2167 92.1049 95.65C92.6882 96.0833 93.4465 96.3 94.3799 96.3C95.2466 96.3 95.9299 96.1083 96.4299 95.725C96.9299 95.3417 97.1799 94.8583 97.1799 94.275C97.1799 93.675 96.9132 93.2333 96.3799 92.95C95.8465 92.65 95.0215 92.3583 93.9049 92.075C92.8882 91.8083 92.0549 91.5417 91.4049 91.275C90.7715 90.9917 90.2215 90.5833 89.7549 90.05C89.3049 89.5 89.0799 88.7833 89.0799 87.9C89.0799 87.2 89.2882 86.5583 89.7049 85.975C90.1215 85.3917 90.7132 84.9333 91.4799 84.6C92.2465 84.25 93.1215 84.075 94.1049 84.075C95.6215 84.075 96.8466 84.4583 97.7799 85.225C98.7132 85.9917 99.2132 87.0417 99.2799 88.375H97.0049C96.9549 87.6583 96.6632 87.0833 96.1299 86.65C95.6132 86.2167 94.9132 86 94.0299 86C93.2132 86 92.5632 86.175 92.0799 86.525C91.5965 86.875 91.3549 87.3333 91.3549 87.9C91.3549 88.35 91.4965 88.725 91.7799 89.025C92.0799 89.3083 92.4465 89.5417 92.8799 89.725C93.3299 89.8917 93.9465 90.0833 94.7299 90.3C95.7132 90.5667 96.5132 90.8333 97.1299 91.1C97.7466 91.35 98.2716 91.7333 98.7049 92.25C99.1549 92.7667 99.3882 93.4417 99.4049 94.275C99.4049 95.025 99.1965 95.7 98.7799 96.3C98.3632 96.9 97.7716 97.375 97.0049 97.725C96.2549 98.0583 95.3882 98.225 94.4049 98.225Z" fill="white"/>
<path d="M57 51.7895C60.7943 51.7895 63.8343 48.6863 63.8343 44.8421L63.8571 30.9474C63.8571 27.1032 60.7943 24 57 24C53.2057 24 50.1429 27.1032 50.1429 30.9474V44.8421C50.1429 48.6863 53.2057 51.7895 57 51.7895ZM54.2571 30.7158C54.2571 29.1874 55.4914 27.9368 57 27.9368C58.5086 27.9368 59.7429 29.1874 59.7429 30.7158L59.72 45.0737C59.72 46.6021 58.5086 47.8526 57 47.8526C55.4914 47.8526 54.2571 46.6021 54.2571 45.0737V30.7158ZM69.1143 44.8421C69.1143 51.7895 63.3086 56.6526 57 56.6526C50.6914 56.6526 44.8857 51.7895 44.8857 44.8421H41C41 52.7389 47.2171 59.2695 54.7143 60.4042V68H59.2857V60.4042C66.7829 59.2926 73 52.7621 73 44.8421H69.1143Z" fill="#FDFDFD"/>
</svg>
