<svg width="122" height="113" viewBox="0 0 122 113" fill="none" xmlns="http://www.w3.org/2000/svg">
<rect width="122" height="113" fill="#3F3939"/>
<path d="M22.075 94.275C22.075 92.575 22.4583 91.05 23.225 89.7C23.9917 88.3333 25.0333 87.2667 26.35 86.5C27.6833 85.7333 29.1583 85.35 30.775 85.35C32.675 85.35 34.3333 85.8083 35.75 86.725C37.1667 87.6417 38.2 88.9417 38.85 90.625H36.125C35.6417 89.575 34.9417 88.7667 34.025 88.2C33.125 87.6333 32.0417 87.35 30.775 87.35C29.5583 87.35 28.4667 87.6333 27.5 88.2C26.5333 88.7667 25.775 89.575 25.225 90.625C24.675 91.6583 24.4 92.875 24.4 94.275C24.4 95.6583 24.675 96.875 25.225 97.925C25.775 98.9583 26.5333 99.7583 27.5 100.325C28.4667 100.892 29.5583 101.175 30.775 101.175C32.0417 101.175 33.125 100.9 34.025 100.35C34.9417 99.7833 35.6417 98.975 36.125 97.925H38.85C38.2 99.5917 37.1667 100.883 35.75 101.8C34.3333 102.7 32.675 103.15 30.775 103.15C29.1583 103.15 27.6833 102.775 26.35 102.025C25.0333 101.258 23.9917 100.2 23.225 98.85C22.4583 97.5 22.075 95.975 22.075 94.275ZM49.0365 89.05C50.0699 89.05 51.0032 89.275 51.8365 89.725C52.6699 90.1583 53.3199 90.8167 53.7865 91.7C54.2699 92.5833 54.5115 93.6583 54.5115 94.925V103H52.2615V95.25C52.2615 93.8833 51.9199 92.8417 51.2365 92.125C50.5532 91.3917 49.6199 91.025 48.4365 91.025C47.2365 91.025 46.2782 91.4 45.5615 92.15C44.8615 92.9 44.5115 93.9917 44.5115 95.425V103H42.2365V84.5H44.5115V91.25C44.9615 90.55 45.5782 90.0083 46.3615 89.625C47.1615 89.2417 48.0532 89.05 49.0365 89.05ZM57.3777 96.1C57.3777 94.7 57.6611 93.475 58.2277 92.425C58.7944 91.3583 59.5694 90.5333 60.5527 89.95C61.5527 89.3667 62.6611 89.075 63.8777 89.075C65.0777 89.075 66.1194 89.3333 67.0027 89.85C67.8861 90.3667 68.5444 91.0167 68.9777 91.8V89.3H71.2777V103H68.9777V100.45C68.5277 101.25 67.8527 101.917 66.9527 102.45C66.0694 102.967 65.0361 103.225 63.8527 103.225C62.6361 103.225 61.5361 102.925 60.5527 102.325C59.5694 101.725 58.7944 100.883 58.2277 99.8C57.6611 98.7167 57.3777 97.4833 57.3777 96.1ZM68.9777 96.125C68.9777 95.0917 68.7694 94.1917 68.3527 93.425C67.9361 92.6583 67.3694 92.075 66.6527 91.675C65.9527 91.2583 65.1777 91.05 64.3277 91.05C63.4777 91.05 62.7027 91.25 62.0027 91.65C61.3027 92.05 60.7444 92.6333 60.3277 93.4C59.9111 94.1667 59.7027 95.0667 59.7027 96.1C59.7027 97.15 59.9111 98.0667 60.3277 98.85C60.7444 99.6167 61.3027 100.208 62.0027 100.625C62.7027 101.025 63.4777 101.225 64.3277 101.225C65.1777 101.225 65.9527 101.025 66.6527 100.625C67.3694 100.208 67.9361 99.6167 68.3527 98.85C68.7694 98.0667 68.9777 97.1583 68.9777 96.125ZM77.3973 91.525C77.7973 90.7417 78.3639 90.1333 79.0973 89.7C79.8473 89.2667 80.7556 89.05 81.8223 89.05V91.4H81.2223C78.6723 91.4 77.3973 92.7833 77.3973 95.55V103H75.1223V89.3H77.3973V91.525ZM87.2234 91.175V99.25C87.2234 99.9167 87.3651 100.392 87.6484 100.675C87.9318 100.942 88.4234 101.075 89.1234 101.075H90.7984V103H88.7484C87.4818 103 86.5318 102.708 85.8984 102.125C85.2651 101.542 84.9484 100.583 84.9484 99.25V91.175H83.1734V89.3H84.9484V85.85H87.2234V89.3H90.7984V91.175H87.2234ZM98.4049 103.225C97.3549 103.225 96.4132 103.05 95.5799 102.7C94.7465 102.333 94.0882 101.833 93.6049 101.2C93.1215 100.55 92.8549 99.8083 92.8049 98.975H95.1549C95.2215 99.6583 95.5382 100.217 96.1049 100.65C96.6882 101.083 97.4465 101.3 98.3799 101.3C99.2466 101.3 99.9299 101.108 100.43 100.725C100.93 100.342 101.18 99.8583 101.18 99.275C101.18 98.675 100.913 98.2333 100.38 97.95C99.8465 97.65 99.0215 97.3583 97.9049 97.075C96.8882 96.8083 96.0549 96.5417 95.4049 96.275C94.7715 95.9917 94.2215 95.5833 93.7549 95.05C93.3049 94.5 93.0799 93.7833 93.0799 92.9C93.0799 92.2 93.2882 91.5583 93.7049 90.975C94.1215 90.3917 94.7132 89.9333 95.4799 89.6C96.2465 89.25 97.1215 89.075 98.1049 89.075C99.6215 89.075 100.847 89.4583 101.78 90.225C102.713 90.9917 103.213 92.0417 103.28 93.375H101.005C100.955 92.6583 100.663 92.0833 100.13 91.65C99.6132 91.2167 98.9132 91 98.0299 91C97.2132 91 96.5632 91.175 96.0799 91.525C95.5965 91.875 95.3549 92.3333 95.3549 92.9C95.3549 93.35 95.4965 93.725 95.7799 94.025C96.0799 94.3083 96.4465 94.5417 96.8799 94.725C97.3299 94.8917 97.9465 95.0833 98.7299 95.3C99.7132 95.5667 100.513 95.8333 101.13 96.1C101.747 96.35 102.272 96.7333 102.705 97.25C103.155 97.7667 103.388 98.4417 103.405 99.275C103.405 100.025 103.197 100.7 102.78 101.3C102.363 101.9 101.772 102.375 101.005 102.725C100.255 103.058 99.3882 103.225 98.4049 103.225Z" fill="white"/>
<path d="M58.5 29C45.528 29 35 39.304 35 52C35 64.696 45.528 75 58.5 75C71.472 75 82 64.696 82 52C82 39.304 71.472 29 58.5 29ZM58.5 70.4C48.1365 70.4 39.7 62.143 39.7 52C39.7 41.857 48.1365 33.6 58.5 33.6C68.8635 33.6 77.3 41.857 77.3 52C77.3 62.143 68.8635 70.4 58.5 70.4ZM58.5 41.65C52.6485 41.65 47.925 46.273 47.925 52C47.925 57.727 52.6485 62.35 58.5 62.35C64.3515 62.35 69.075 57.727 69.075 52C69.075 46.273 64.3515 41.65 58.5 41.65ZM58.5 54.3C57.2075 54.3 56.15 53.265 56.15 52C56.15 50.735 57.2075 49.7 58.5 49.7C59.7925 49.7 60.85 50.735 60.85 52C60.85 53.265 59.7925 54.3 58.5 54.3Z" fill="white"/>
</svg>
