<svg width="113" height="122" viewBox="0 0 113 122" fill="none" xmlns="http://www.w3.org/2000/svg">
<rect width="113" height="122" fill="#352F2F"/>
<path d="M19.075 94.275C19.075 92.575 19.4583 91.05 20.225 89.7C20.9917 88.3333 22.0333 87.2667 23.35 86.5C24.6833 85.7333 26.1583 85.35 27.775 85.35C29.675 85.35 31.3333 85.8083 32.75 86.725C34.1667 87.6417 35.2 88.9417 35.85 90.625H33.125C32.6417 89.575 31.9417 88.7667 31.025 88.2C30.125 87.6333 29.0417 87.35 27.775 87.35C26.5583 87.35 25.4667 87.6333 24.5 88.2C23.5333 88.7667 22.775 89.575 22.225 90.625C21.675 91.6583 21.4 92.875 21.4 94.275C21.4 95.6583 21.675 96.875 22.225 97.925C22.775 98.9583 23.5333 99.7583 24.5 100.325C25.4667 100.892 26.5583 101.175 27.775 101.175C29.0417 101.175 30.125 100.9 31.025 100.35C31.9417 99.7833 32.6417 98.975 33.125 97.925H35.85C35.2 99.5917 34.1667 100.883 32.75 101.8C31.3333 102.7 29.675 103.15 27.775 103.15C26.1583 103.15 24.6833 102.775 23.35 102.025C22.0333 101.258 20.9917 100.2 20.225 98.85C19.4583 97.5 19.075 95.975 19.075 94.275ZM46.0365 89.05C47.0699 89.05 48.0032 89.275 48.8365 89.725C49.6699 90.1583 50.3199 90.8167 50.7865 91.7C51.2699 92.5833 51.5115 93.6583 51.5115 94.925V103H49.2615V95.25C49.2615 93.8833 48.9199 92.8417 48.2365 92.125C47.5532 91.3917 46.6199 91.025 45.4365 91.025C44.2365 91.025 43.2782 91.4 42.5615 92.15C41.8615 92.9 41.5115 93.9917 41.5115 95.425V103H39.2365V84.5H41.5115V91.25C41.9615 90.55 42.5782 90.0083 43.3615 89.625C44.1615 89.2417 45.0532 89.05 46.0365 89.05ZM54.3777 96.1C54.3777 94.7 54.6611 93.475 55.2277 92.425C55.7944 91.3583 56.5694 90.5333 57.5527 89.95C58.5527 89.3667 59.6611 89.075 60.8777 89.075C62.0777 89.075 63.1194 89.3333 64.0027 89.85C64.8861 90.3667 65.5444 91.0167 65.9777 91.8V89.3H68.2777V103H65.9777V100.45C65.5277 101.25 64.8527 101.917 63.9527 102.45C63.0694 102.967 62.0361 103.225 60.8527 103.225C59.6361 103.225 58.5361 102.925 57.5527 102.325C56.5694 101.725 55.7944 100.883 55.2277 99.8C54.6611 98.7167 54.3777 97.4833 54.3777 96.1ZM65.9777 96.125C65.9777 95.0917 65.7694 94.1917 65.3527 93.425C64.9361 92.6583 64.3694 92.075 63.6527 91.675C62.9527 91.2583 62.1777 91.05 61.3277 91.05C60.4777 91.05 59.7027 91.25 59.0027 91.65C58.3027 92.05 57.7444 92.6333 57.3277 93.4C56.9111 94.1667 56.7027 95.0667 56.7027 96.1C56.7027 97.15 56.9111 98.0667 57.3277 98.85C57.7444 99.6167 58.3027 100.208 59.0027 100.625C59.7027 101.025 60.4777 101.225 61.3277 101.225C62.1777 101.225 62.9527 101.025 63.6527 100.625C64.3694 100.208 64.9361 99.6167 65.3527 98.85C65.7694 98.0667 65.9777 97.1583 65.9777 96.125ZM74.3973 91.525C74.7973 90.7417 75.3639 90.1333 76.0973 89.7C76.8473 89.2667 77.7556 89.05 78.8223 89.05V91.4H78.2223C75.6723 91.4 74.3973 92.7833 74.3973 95.55V103H72.1223V89.3H74.3973V91.525ZM84.2234 91.175V99.25C84.2234 99.9167 84.3651 100.392 84.6484 100.675C84.9318 100.942 85.4234 101.075 86.1234 101.075H87.7984V103H85.7484C84.4818 103 83.5318 102.708 82.8984 102.125C82.2651 101.542 81.9484 100.583 81.9484 99.25V91.175H80.1734V89.3H81.9484V85.85H84.2234V89.3H87.7984V91.175H84.2234ZM95.4049 103.225C94.3549 103.225 93.4132 103.05 92.5799 102.7C91.7465 102.333 91.0882 101.833 90.6049 101.2C90.1215 100.55 89.8549 99.8083 89.8049 98.975H92.1549C92.2215 99.6583 92.5382 100.217 93.1049 100.65C93.6882 101.083 94.4465 101.3 95.3799 101.3C96.2466 101.3 96.9299 101.108 97.4299 100.725C97.9299 100.342 98.1799 99.8583 98.1799 99.275C98.1799 98.675 97.9132 98.2333 97.3799 97.95C96.8465 97.65 96.0215 97.3583 94.9049 97.075C93.8882 96.8083 93.0549 96.5417 92.4049 96.275C91.7715 95.9917 91.2215 95.5833 90.7549 95.05C90.3049 94.5 90.0799 93.7833 90.0799 92.9C90.0799 92.2 90.2882 91.5583 90.7049 90.975C91.1215 90.3917 91.7132 89.9333 92.4799 89.6C93.2465 89.25 94.1215 89.075 95.1049 89.075C96.6215 89.075 97.8466 89.4583 98.7799 90.225C99.7132 90.9917 100.213 92.0417 100.28 93.375H98.0049C97.9549 92.6583 97.6632 92.0833 97.1299 91.65C96.6132 91.2167 95.9132 91 95.0299 91C94.2132 91 93.5632 91.175 93.0799 91.525C92.5965 91.875 92.3549 92.3333 92.3549 92.9C92.3549 93.35 92.4965 93.725 92.7799 94.025C93.0799 94.3083 93.4465 94.5417 93.8799 94.725C94.3299 94.8917 94.9465 95.0833 95.7299 95.3C96.7132 95.5667 97.5132 95.8333 98.1299 96.1C98.7466 96.35 99.2716 96.7333 99.7049 97.25C100.155 97.7667 100.388 98.4417 100.405 99.275C100.405 100.025 100.197 100.7 99.7799 101.3C99.3632 101.9 98.7716 102.375 98.0049 102.725C97.2549 103.058 96.3882 103.225 95.4049 103.225Z" fill="white"/>
<path d="M43 29V61L69 45L43 29Z" fill="white"/>
</svg>
