<svg width="111" height="93" viewBox="0 0 111 93" fill="none" xmlns="http://www.w3.org/2000/svg">
<path d="M55.5 88.5C82.7143 88.5 106.5 70.5516 106.5 46.5C106.5 22.4484 82.7143 4.5 55.5 4.5C28.2857 4.5 4.5 22.4484 4.5 46.5C4.5 70.5516 28.2857 88.5 55.5 88.5Z" stroke="url(#paint0_linear_6_18)" stroke-width="9"/>
<mask id="mask0_6_18" style="mask-type:alpha" maskUnits="userSpaceOnUse" x="23" y="26" width="65" height="41">
<path d="M28 37.3898L28.4958 56.0553" stroke="black" stroke-width="8" stroke-linecap="round"/>
<path d="M60.52 30.1865L60.9958 62.8362" stroke="black" stroke-width="8" stroke-linecap="round"/>
<path d="M83.02 37.3898L82.9958 56.0565" stroke="black" stroke-width="8" stroke-linecap="round"/>
<path d="M71.52 34L71.9958 59.4459" stroke="black" stroke-width="8" stroke-linecap="round"/>
<path d="M51.02 30.1864L50.9969 62.8361" stroke="black" stroke-width="8" stroke-linecap="round"/>
<path d="M39.52 34L39.9958 59.4459" stroke="black" stroke-width="8" stroke-linecap="round"/>
</mask>
<g mask="url(#mask0_6_18)">
<rect x="9" y="26.7966" width="93" height="38.5593" fill="url(#paint1_linear_6_18)" fill-opacity="0.7"/>
</g>
<defs>
<linearGradient id="paint0_linear_6_18" x1="28.25" y1="0.101694" x2="58.0466" y2="77.7652" gradientUnits="userSpaceOnUse">
<stop stop-color="#00D5FE"/>
<stop offset="0.567708" stop-color="#FC42C8"/>
<stop offset="0.703125" stop-color="#50F3E0"/>
<stop offset="0.848958" stop-color="#DD3AAF"/>
<stop offset="0.916567" stop-color="#5EE0FA"/>
<stop offset="0.973958" stop-color="#FD03C6"/>
</linearGradient>
<linearGradient id="paint1_linear_6_18" x1="55.5" y1="26.7966" x2="55.5" y2="65.356" gradientUnits="userSpaceOnUse">
<stop stop-color="#00C9FB"/>
<stop offset="0.677083" stop-color="#F261A7"/>
</linearGradient>
</defs>
</svg>
